<?xml version="1.0" standalone="no"?>
<!DOCTYPE svg PUBLIC "-//W3C//DTD SVG 20010904//EN"
 "http://www.w3.org/TR/2001/REC-SVG-20010904/DTD/svg10.dtd">
<svg version="1.0" xmlns="http://www.w3.org/2000/svg"
 width="504.000000pt" height="206.000000pt" viewBox="0 0 504.000000 206.000000"
 preserveAspectRatio="xMidYMid meet">
<metadata/>
<g transform="translate(0.000000,206.000000) scale(0.100000,-0.100000)"
fill="#6db8f1" stroke="none">
<path d="M572 1944 c-35 -47 -62 -88 -59 -90 2 -3 61 -3 131 -2 l128 3 -67 88
c-36 48 -67 87 -68 87 -1 -1 -30 -39 -65 -86z"/>
<path d="M558 1619 c-75 -8 -166 -35 -186 -54 -12 -10 -12 -38 -1 -166 7 -85
13 -264 14 -399 0 -227 -2 -251 -23 -325 -13 -44 -35 -102 -50 -129 -31 -58
-110 -139 -151 -156 -16 -6 -32 -21 -35 -33 -18 -67 9 -170 58 -222 33 -35 35
-35 92 -29 268 28 482 161 580 359 61 125 84 294 84 633 0 126 -3 284 -7 352
l-6 122 -32 14 c-68 28 -237 45 -337 33z"/>
<path d="M2820 1614 c-14 -2 -52 -9 -85 -15 -160 -29 -262 -111 -300 -244 -46
-155 29 -314 179 -380 60 -26 189 -58 325 -79 105 -16 141 -36 155 -84 24 -86
-81 -164 -178 -132 -45 15 -66 44 -66 91 0 47 -30 73 -108 95 -99 29 -256 0
-308 -57 -22 -25 -15 -129 14 -185 67 -132 224 -181 547 -171 300 9 423 61
503 212 24 44 27 61 27 150 0 120 -23 182 -89 243 -55 51 -124 76 -294 107
-212 38 -276 67 -288 129 -18 97 106 158 177 87 20 -20 29 -39 29 -61 0 -27 6
-34 48 -53 38 -18 65 -22 142 -22 85 0 101 3 154 30 32 17 64 37 69 46 13 20
-27 110 -71 160 -40 46 -131 94 -213 114 -62 15 -318 28 -369 19z"/>
<path d="M1470 1595 c-8 -2 -44 -7 -80 -10 -36 -3 -71 -10 -79 -14 -7 -5 -24
-68 -37 -142 -58 -315 -146 -594 -255 -811 -39 -78 -40 -82 -23 -96 84 -64
235 -84 386 -50 l48 10 26 84 26 84 157 -6 c86 -3 161 -7 167 -9 6 -2 17 -23
23 -48 23 -80 43 -103 103 -118 131 -32 338 -7 388 46 l21 23 -49 98 c-105
210 -170 429 -218 736 l-28 176 -35 10 c-77 23 -173 33 -346 37 -99 2 -187 2
-195 0z m225 -292 c11 -87 46 -328 52 -355 l6 -28 -108 0 c-89 0 -106 2 -102
14 6 15 50 280 62 369 6 47 6 47 45 47 39 0 39 0 45 -47z"/>
<path d="M4594 1589 l-51 -10 -12 -137 c-7 -75 -16 -189 -19 -252 l-7 -115
-107 145 c-59 80 -135 191 -168 247 l-61 102 -56 11 c-69 15 -331 8 -387 -10
l-38 -12 6 -46 c21 -153 28 -309 23 -507 -5 -188 -24 -414 -42 -492 -5 -20 2
-25 66 -44 61 -19 87 -21 173 -16 55 3 118 11 138 17 49 14 52 30 53 306 l0
221 94 -126 c95 -126 204 -289 234 -347 21 -42 107 -67 232 -68 89 -1 228 25
241 45 3 5 -3 67 -12 137 -22 157 -25 610 -6 742 7 47 15 106 19 131 l5 46
-48 17 c-59 21 -199 29 -270 15z"/>
</g>
</svg>
