<svg xmlns="http://www.w3.org/2000/svg" xmlns:xlink="http://www.w3.org/1999/xlink" version="1.1" baseProfile="tiny" x="0px" y="0px" width="100px" height="100px" viewBox="0 0 100 100" xml:space="preserve">
<g id="Captions">
</g>
<g id="Your_Icon">
	<path fill-rule="evenodd" fill="#6db8f1" d="M49.947,90.991c0.693,0,1.41,0.02,2.104,0c13.547-0.201,26.439-1.723,28.775-3.945   c0.537-4.928,1.195-7.311-20.65-17.644c-3.107-1.742-1.465-8.492-1.465-8.492c6.578-4.969,11.096-16.463,11.096-25.676   c0-15.921-7.18-23.453-17.756-24.234h-2.104c-10.557,0.781-17.734,8.312-17.734,24.234c0,9.213,4.496,20.707,11.078,25.676   c0,0,1.641,6.75-1.449,8.492C19.979,79.735,20.635,82.118,21.176,87.046C23.51,89.269,36.402,90.79,49.947,90.991z"/>
</g>
</svg>